# xmcd
#
# Track frame offsets:
#	150
#	13465
#	30110
#
# Disc length: 611 seconds
#
# Revision: 1
# Processed by: cddbd v1.4PL0 Copyright (c) Steve Scherf et al.
# Submitted via: EasyCDDAExtractor 6.0.0.1
#
DISCID=18026103
DTITLE=Ray Stevens - Misty [CD single)
DYEAR=1900
DGENRE=Country
TTITLE0=Misty
TTITLE1=Bridget The Midget
TTITLE2=Everything Is Beautiful
EXTD=
EXTT0=
EXTT1=
EXTT2=
PLAYORDER=
